<svg width="274" height="274" viewBox="0 0 274 274" fill="none" xmlns="http://www.w3.org/2000/svg">
<mask id="mask0_23_3" style="mask-type:alpha" maskUnits="userSpaceOnUse" x="0" y="0" width="274" height="274">
<circle cx="137" cy="137" r="137" fill="#F3AE00"/>
</mask>
<g mask="url(#mask0_23_3)">
<circle cx="4.62093" cy="6.00476" r="6.00476" fill="#F3AE00"/>
<circle cx="4.62094" cy="43.2343" r="6.00476" fill="#F3AE00"/>
<circle cx="4.62094" cy="80.4638" r="6.00476" fill="#F3AE00"/>
<circle cx="4.62094" cy="117.693" r="6.00476" fill="#F3AE00"/>
<circle cx="4.62094" cy="154.923" r="6.00476" fill="#F3AE00"/>
<circle cx="4.62094" cy="192.152" r="6.00476" fill="#F3AE00"/>
<circle cx="4.62094" cy="229.382" r="6.00476" fill="#F3AE00"/>
<circle cx="4.62094" cy="266.611" r="6.00476" fill="#F3AE00"/>
<circle cx="38.2476" cy="6.00476" r="6.00476" fill="#F3AE00"/>
<circle cx="38.2476" cy="43.2343" r="6.00476" fill="#F3AE00"/>
<circle cx="38.2476" cy="80.4638" r="6.00476" fill="#F3AE00"/>
<circle cx="38.2476" cy="117.693" r="6.00476" fill="#F3AE00"/>
<circle cx="38.2476" cy="154.923" r="6.00476" fill="#F3AE00"/>
<circle cx="38.2476" cy="192.152" r="6.00476" fill="#F3AE00"/>
<circle cx="38.2476" cy="229.382" r="6.00476" fill="#F3AE00"/>
<circle cx="38.2476" cy="266.611" r="6.00476" fill="#F3AE00"/>
<circle cx="71.8743" cy="6.00476" r="6.00476" fill="#F3AE00"/>
<circle cx="71.8743" cy="43.2343" r="6.00476" fill="#F3AE00"/>
<circle cx="71.8743" cy="80.4638" r="6.00476" fill="#F3AE00"/>
<circle cx="71.8743" cy="117.693" r="6.00476" fill="#F3AE00"/>
<circle cx="71.8743" cy="154.923" r="6.00476" fill="#F3AE00"/>
<circle cx="71.8743" cy="192.152" r="6.00476" fill="#F3AE00"/>
<circle cx="71.8743" cy="229.382" r="6.00476" fill="#F3AE00"/>
<circle cx="71.8743" cy="266.611" r="6.00476" fill="#F3AE00"/>
<circle cx="105.501" cy="6.00476" r="6.00476" fill="#F3AE00"/>
<circle cx="105.501" cy="43.2343" r="6.00476" fill="#F3AE00"/>
<circle cx="105.501" cy="80.4638" r="6.00476" fill="#F3AE00"/>
<circle cx="105.501" cy="117.693" r="6.00476" fill="#F3AE00"/>
<circle cx="105.501" cy="154.923" r="6.00476" fill="#F3AE00"/>
<circle cx="105.501" cy="192.152" r="6.00476" fill="#F3AE00"/>
<circle cx="105.501" cy="229.382" r="6.00476" fill="#F3AE00"/>
<circle cx="105.501" cy="266.611" r="6.00476" fill="#F3AE00"/>
<circle cx="139.128" cy="6.00476" r="6.00476" fill="#F3AE00"/>
<circle cx="139.128" cy="43.2343" r="6.00476" fill="#F3AE00"/>
<circle cx="139.128" cy="80.4638" r="6.00476" fill="#F3AE00"/>
<circle cx="139.128" cy="117.693" r="6.00476" fill="#F3AE00"/>
<circle cx="139.128" cy="154.923" r="6.00476" fill="#F3AE00"/>
<circle cx="139.128" cy="192.152" r="6.00476" fill="#F3AE00"/>
<circle cx="139.128" cy="229.382" r="6.00476" fill="#F3AE00"/>
<circle cx="139.128" cy="266.611" r="6.00476" fill="#F3AE00"/>
<circle cx="172.754" cy="6.00476" r="6.00476" fill="#F3AE00"/>
<circle cx="172.754" cy="43.2343" r="6.00476" fill="#F3AE00"/>
<circle cx="172.754" cy="80.4638" r="6.00476" fill="#F3AE00"/>
<circle cx="172.754" cy="117.693" r="6.00476" fill="#F3AE00"/>
<circle cx="172.754" cy="154.923" r="6.00476" fill="#F3AE00"/>
<circle cx="172.754" cy="192.152" r="6.00476" fill="#F3AE00"/>
<circle cx="172.754" cy="229.382" r="6.00476" fill="#F3AE00"/>
<circle cx="172.754" cy="266.611" r="6.00476" fill="#F3AE00"/>
<circle cx="206.381" cy="6.00476" r="6.00476" fill="#F3AE00"/>
<circle cx="206.381" cy="43.2343" r="6.00476" fill="#F3AE00"/>
<circle cx="206.381" cy="80.4638" r="6.00476" fill="#F3AE00"/>
<circle cx="206.381" cy="117.693" r="6.00476" fill="#F3AE00"/>
<circle cx="206.381" cy="154.923" r="6.00476" fill="#F3AE00"/>
<circle cx="206.381" cy="192.152" r="6.00476" fill="#F3AE00"/>
<circle cx="206.381" cy="229.382" r="6.00476" fill="#F3AE00"/>
<circle cx="206.381" cy="266.611" r="6.00476" fill="#F3AE00"/>
<circle cx="240.008" cy="6.00476" r="6.00476" fill="#F3AE00"/>
<circle cx="240.008" cy="43.2343" r="6.00476" fill="#F3AE00"/>
<circle cx="240.008" cy="80.4638" r="6.00476" fill="#F3AE00"/>
<circle cx="240.008" cy="117.693" r="6.00476" fill="#F3AE00"/>
<circle cx="240.008" cy="154.923" r="6.00476" fill="#F3AE00"/>
<circle cx="240.008" cy="192.152" r="6.00476" fill="#F3AE00"/>
<circle cx="240.008" cy="229.382" r="6.00476" fill="#F3AE00"/>
<circle cx="240.008" cy="266.611" r="6.00476" fill="#F3AE00"/>
<circle cx="273.634" cy="6.00476" r="6.00476" fill="#F3AE00"/>
<circle cx="273.634" cy="43.2343" r="6.00476" fill="#F3AE00"/>
<circle cx="273.634" cy="80.4638" r="6.00476" fill="#F3AE00"/>
<circle cx="273.634" cy="117.693" r="6.00476" fill="#F3AE00"/>
<circle cx="273.634" cy="154.923" r="6.00476" fill="#F3AE00"/>
<circle cx="273.634" cy="192.152" r="6.00476" fill="#F3AE00"/>
<circle cx="273.634" cy="229.382" r="6.00476" fill="#F3AE00"/>
<circle cx="273.634" cy="266.611" r="6.00476" fill="#F3AE00"/>
</g>
</svg>
